<svg xmlns="http://www.w3.org/2000/svg" viewBox="0 0 168.05 260.33"><defs><style>.cls-1{isolation:isolate;}.cls-2,.cls-3,.cls-4,.cls-5{fill:none;stroke:#000;stroke-miterlimit:10;stroke-width:0.5px;}.cls-3{mix-blend-mode:overlay;}.cls-4{opacity:0.42;}.cls-5{opacity:0.32;}</style></defs><g class="cls-1"><g id="Camada_2" data-name="Camada 2"><g id="OBJECTS"><path class="cls-2" d="M92.32.25H61.77l62.84,122.86L93.19,187.29h37a14.48,14.48,0,0,0,13-8.12L165.34,134a24.1,24.1,0,0,0-.19-21.58L114.85,14A25.3,25.3,0,0,0,92.32.25Z"/><path class="cls-2" d="M92.32.25H61.77l62.84,122.86L93.19,187.29h37a14.48,14.48,0,0,0,13-8.12L165.34,134a24.1,24.1,0,0,0-.19-21.58L114.85,14A25.3,25.3,0,0,0,92.32.25Z"/><path class="cls-2" d="M114.85,14c25.06,49,27,73.85,9.76,109.08L93.19,187.29h37a14.48,14.48,0,0,0,13-8.12L165.34,134a24.1,24.1,0,0,0-.19-21.58Z"/><path class="cls-3" d="M114.85,14c25.06,49,27,73.85,9.76,109.08L93.19,187.29h37a14.48,14.48,0,0,0,13-8.12L165.34,134a24.1,24.1,0,0,0-.19-21.58Z"/><path class="cls-4" d="M165.15,112.37,151,84.63c1,15.89-2.87,30.39-11.13,47.25L112.7,187.29h17.49a14.48,14.48,0,0,0,13-8.12L165.34,134A24.1,24.1,0,0,0,165.15,112.37Z"/><path class="cls-2" d="M75.73,260.08h30.55L43.44,137.21,74.86,73h-37a14.48,14.48,0,0,0-13,8.12L2.71,126.38A24.11,24.11,0,0,0,2.89,148l50.3,98.34A25.32,25.32,0,0,0,75.73,260.08Z"/><path class="cls-2" d="M75.73,260.08h30.55L43.44,137.21,74.86,73h-37a14.48,14.48,0,0,0-13,8.12L2.71,126.38A24.11,24.11,0,0,0,2.89,148l50.3,98.34A25.32,25.32,0,0,0,75.73,260.08Z"/><path class="cls-2" d="M53.19,246.29c-25-49-27-73.85-9.75-109.08L74.86,73h-37a14.48,14.48,0,0,0-13,8.12L2.71,126.38A24.11,24.11,0,0,0,2.89,148Z"/><path class="cls-2" d="M53.19,246.29c-25-49-27-73.85-9.75-109.08L74.86,73h-37a14.48,14.48,0,0,0-13,8.12L2.71,126.38A24.11,24.11,0,0,0,2.89,148Z"/><path class="cls-5" d="M2.89,148l14.2,27.75c-1-15.9,2.87-30.39,11.12-47.25L55.35,73H37.86a14.48,14.48,0,0,0-13,8.12L2.71,126.38A24.11,24.11,0,0,0,2.89,148Z"/></g></g></g></svg>